<?xml version="1.0" encoding="UTF-8"?>
<!DOCTYPE svg PUBLIC "-//W3C//DTD SVG 1.1//EN" "http://www.w3.org/Graphics/SVG/1.1/DTD/svg11.dtd">
<!-- Creator: CorelDRAW -->
<svg xmlns="http://www.w3.org/2000/svg" xml:space="preserve" width="210mm" height="148mm" version="1.1" style="shape-rendering:geometricPrecision; text-rendering:geometricPrecision; image-rendering:optimizeQuality; fill-rule:evenodd; clip-rule:evenodd"
viewBox="0 0 21000 14800"
 xmlns:xlink="http://www.w3.org/1999/xlink"
 xmlns:xodm="http://www.corel.com/coreldraw/odm/2003">
 <defs>
  <style type="text/css">
   <![CDATA[
    .fil0 {fill:#015052}
   ]]>
  </style>
 </defs>
 <g id="Слой_x0020_1">
  <metadata id="CorelCorpID_0Corel-Layer"/>
  <path class="fil0" d="M9809.86 8232.77c164.28,418.91 198.67,590.8 623.26,944.05 113.84,-58.4 291.74,-285.15 374.09,-399.6 144.87,-201.35 164.54,-317.36 249.18,-534.87 111.22,283.05 191.48,487.78 392.25,724.77 397.11,468.77 752.42,713.24 1328.94,919.37 257.58,92.1 223.75,14.62 223.71,328.29 -0.18,1428.13 -1173.22,2500.11 -2568.11,2498.65 -1437.06,-1.5 -2591.99,-1179.13 -2566.95,-2480.15 5.67,-294.22 -46.3,-248.15 210.11,-338.29 845.55,-297.29 1412.34,-810.07 1733.52,-1662.22zm1571.96 -197c682.59,118.16 1400.94,796.35 1538.53,1473.7 -386.27,-145.82 -650.54,-272.63 -947.62,-545.86 -223.98,-205.99 -493.78,-614.16 -590.91,-927.84zm-3427.93 1472.89c170.21,-707.63 806.49,-1339.29 1531.1,-1480.8 -217.75,700.8 -825.67,1274.54 -1531.1,1480.8zm2488.47 -2231.94c506.15,291.01 326.16,1040.6 -9.24,1385.99 -160.49,-139.65 -319.41,-469.47 -322.28,-699.67 -3.1,-248.65 104.59,-583.89 331.52,-686.32zm178.1 -180.25c150.52,-237.82 409.86,-339.65 706.66,-309.4 412.08,42.01 478.96,189.31 682.72,306.55 -114.79,209.16 -960.59,643.1 -1389.38,2.85zm-1772.15 9.97c384.57,-328.04 1053.57,-522.29 1398.59,-10.99 -90.12,132.49 -104.21,174.18 -257.93,259.59 -334.34,185.76 -913.34,18.52 -1140.66,-248.6zm2768.89 -568.48c3.25,-3.26 8.72,-6.8 11.1,-8.21 2.43,-1.44 8.61,-6.16 11.76,-7.86 3.31,-1.79 9.13,-5.32 13.01,-7.19l167.29 -63.9c67.36,-30.32 137.86,-56.68 203.88,-87.97 607.12,-287.74 1090.1,-898.7 1271.53,-1538.58 70.68,-249.32 -6.53,-247.24 296.62,-253.78 1448.8,-31.26 2522.56,1100.68 2518.42,2525.89 -4.07,1396.35 -1101.93,2594.1 -2520.4,2530.13 -504.71,-22.75 -26.77,-74.96 -660.94,-1015.82 -133.19,-197.61 -371.74,-417.11 -559.53,-564.41 -228.6,-179.32 -484.88,-264.73 -748.06,-368.07 345.69,-114.15 652,-225.41 924.49,-576.85 -237.19,-257.76 -554.16,-488.73 -929.17,-563.38zm-3307.18 550.39c44.47,126.14 276.92,282.86 395.23,367.35 201.53,143.93 320.52,152.36 537.96,222.49 -283.24,125.49 -210.85,33.19 -613.14,272.68 -146.62,87.28 -399.98,295.55 -495.51,420.06 -290.12,378.07 -527.67,727.97 -596.75,1231.82 -710.45,141.78 -1455.44,-162.23 -1973.02,-630.15 -768.25,-694.57 -1013.91,-2024.56 -569.78,-2974.95 119.34,-255.4 331.9,-597.64 543.57,-782.54 241.01,-210.54 521.46,-391.32 825.1,-501.89 294.3,-107.18 867.96,-202.68 1162,-110.96 36.75,92.57 67.37,244.84 102.59,351.05 205.87,620.81 699.64,1177.84 1292.95,1455.78l334.92 134.85c-387.61,30.27 -691.36,320.42 -946.12,544.41zm2121.57 -170.49c-116.65,-115.32 -149.26,-79.38 -240.67,-262.29 -206.06,-412.3 -20.2,-822.24 242.2,-1137.73 158.81,235.84 313,382.79 321.08,711.27 10.09,409.94 -123.48,503.43 -322.61,688.75zm940.15 -740.82c287.2,-750.09 794.61,-1235.12 1556.31,-1496.89 -160.89,682.28 -861.75,1367 -1556.31,1496.89zm-1884.08 -4.85c-330.54,3.2 -834.78,-399.57 -1068.27,-633.74 -174.69,-175.19 -397.29,-601.17 -456.24,-848.98 358.56,113.94 673.7,336.7 938.11,573.74 275.76,247.2 450.84,576.25 586.4,908.98zm307.16 -219.98c-176.84,-734.27 -1017.71,-1441.14 -1728.97,-1644.47 -252.51,-72.19 -191.52,-86.4 -189.87,-369.85 0.99,-171.79 22.33,-340.56 56.73,-508.75 244.75,-1196.7 1329.95,-1947.99 2518.8,-1947.17 1419.66,0.97 2558.35,1110.53 2552,2475.61 -1.31,280.66 56.6,279.08 -198.36,355.77 -627.83,188.81 -1238.85,673.64 -1565.98,1243.71 -47.82,83.31 -178.41,428.9 -188.1,380.03 -47.92,-277.19 -396.5,-840.54 -617.95,-945.47 -344.43,233.97 -510.62,619.89 -638.3,960.59zm-2325.91 -1780.42c-1749.67,-187.04 -3121.16,1235.64 -3105.11,2945.44 15.5,1650.07 1397.04,3103.04 3100.08,2912.48 -85.98,787.42 287.96,1646.23 820.83,2206.77 1724.65,1814.24 5236.42,738.68 5124.04,-2206.14 1724.91,144.42 3114.85,-1225.84 3104.9,-2934.23 -2.47,-424.29 -68.73,-868.97 -249.06,-1256.63 -77.7,-167.02 -165.29,-329.04 -269.82,-480.69 -218.15,-316.51 -306.24,-345.06 -359.96,-410.46 -226.25,-275.41 -592.76,-465.59 -923.86,-595.63 -480.29,-188.63 -789.39,-197.66 -1295.84,-196.86 -28.97,-548.06 -24.96,-765.57 -222.77,-1290.65 -108.45,-287.86 -368.52,-724.67 -611.5,-907.87 -85.82,-64.71 -79.8,-111.18 -188.71,-186.71 -321.57,-222.98 -215.9,-208.81 -699.55,-444.16 -367.23,-178.69 -854.33,-260.63 -1259.48,-263.48 -1730.77,-12.15 -3066.95,1376.99 -2964.19,3108.82z"/>
 </g>
</svg>
